<svg xmlns="http://www.w3.org/2000/svg" xmlns:xlink="http://www.w3.org/1999/xlink" width="500" zoomAndPan="magnify" viewBox="0 0 375 374.999991" height="500" preserveAspectRatio="xMidYMid meet" version="1.0"><defs><g/><clipPath id="c15f7df6ad"><path d="M 46 160 L 353.367188 160 L 353.367188 218 L 46 218 Z M 46 160 " clip-rule="nonzero"/></clipPath><clipPath id="e9e4ecc990"><path d="M 21.867188 220 L 292 220 L 292 225 L 21.867188 225 Z M 21.867188 220 " clip-rule="nonzero"/></clipPath><clipPath id="59d3d3e15b"><path d="M 29 180 L 38 180 L 38 190 L 29 190 Z M 29 180 " clip-rule="nonzero"/></clipPath><clipPath id="848e1e19eb"><path d="M -24.140625 136.851562 L 231.308594 -34.328125 L 274.730469 30.46875 L 19.28125 201.648438 Z M -24.140625 136.851562 " clip-rule="nonzero"/></clipPath><clipPath id="62aea6c137"><path d="M -24.140625 136.851562 L 231.308594 -34.328125 L 274.730469 30.46875 L 19.28125 201.648438 Z M -24.140625 136.851562 " clip-rule="nonzero"/></clipPath><clipPath id="dce921cdbd"><path d="M 40 167 L 49 167 L 49 177 L 40 177 Z M 40 167 " clip-rule="nonzero"/></clipPath><clipPath id="6d5826d9e9"><path d="M -24.140625 136.851562 L 231.308594 -34.328125 L 274.730469 30.46875 L 19.28125 201.648438 Z M -24.140625 136.851562 " clip-rule="nonzero"/></clipPath><clipPath id="91fd28b18b"><path d="M -24.140625 136.851562 L 231.308594 -34.328125 L 274.730469 30.46875 L 19.28125 201.648438 Z M -24.140625 136.851562 " clip-rule="nonzero"/></clipPath><clipPath id="6639192138"><path d="M 51 154 L 60 154 L 60 164 L 51 164 Z M 51 154 " clip-rule="nonzero"/></clipPath><clipPath id="fe50b84bff"><path d="M -24.140625 136.851562 L 231.308594 -34.328125 L 274.730469 30.46875 L 19.28125 201.648438 Z M -24.140625 136.851562 " clip-rule="nonzero"/></clipPath><clipPath id="fa43e107d4"><path d="M -24.140625 136.851562 L 231.308594 -34.328125 L 274.730469 30.46875 L 19.28125 201.648438 Z M -24.140625 136.851562 " clip-rule="nonzero"/></clipPath><clipPath id="f6bea77c89"><path d="M 62 142 L 72 142 L 72 152 L 62 152 Z M 62 142 " clip-rule="nonzero"/></clipPath><clipPath id="51fcec67de"><path d="M -24.140625 136.851562 L 231.308594 -34.328125 L 274.730469 30.46875 L 19.28125 201.648438 Z M -24.140625 136.851562 " clip-rule="nonzero"/></clipPath><clipPath id="77c6f6c09e"><path d="M -24.140625 136.851562 L 231.308594 -34.328125 L 274.730469 30.46875 L 19.28125 201.648438 Z M -24.140625 136.851562 " clip-rule="nonzero"/></clipPath><clipPath id="9375fb2c6e"><path d="M 75 131 L 84 131 L 84 140 L 75 140 Z M 75 131 " clip-rule="nonzero"/></clipPath><clipPath id="eed8e57e3f"><path d="M -24.140625 136.851562 L 231.308594 -34.328125 L 274.730469 30.46875 L 19.28125 201.648438 Z M -24.140625 136.851562 " clip-rule="nonzero"/></clipPath><clipPath id="40ccd15aa5"><path d="M -24.140625 136.851562 L 231.308594 -34.328125 L 274.730469 30.46875 L 19.28125 201.648438 Z M -24.140625 136.851562 " clip-rule="nonzero"/></clipPath><clipPath id="4f5e853966"><path d="M 87 120 L 97 120 L 97 129 L 87 129 Z M 87 120 " clip-rule="nonzero"/></clipPath><clipPath id="49bf838da9"><path d="M -24.140625 136.851562 L 231.308594 -34.328125 L 274.730469 30.46875 L 19.28125 201.648438 Z M -24.140625 136.851562 " clip-rule="nonzero"/></clipPath><clipPath id="710d1eb619"><path d="M -24.140625 136.851562 L 231.308594 -34.328125 L 274.730469 30.46875 L 19.28125 201.648438 Z M -24.140625 136.851562 " clip-rule="nonzero"/></clipPath><clipPath id="1646b2a439"><path d="M 100 109 L 110 109 L 110 118 L 100 118 Z M 100 109 " clip-rule="nonzero"/></clipPath><clipPath id="bcf58da697"><path d="M -24.140625 136.851562 L 231.308594 -34.328125 L 274.730469 30.46875 L 19.28125 201.648438 Z M -24.140625 136.851562 " clip-rule="nonzero"/></clipPath><clipPath id="c572f3e0a9"><path d="M -24.140625 136.851562 L 231.308594 -34.328125 L 274.730469 30.46875 L 19.28125 201.648438 Z M -24.140625 136.851562 " clip-rule="nonzero"/></clipPath><clipPath id="78563c3c67"><path d="M 114 99 L 124 99 L 124 108 L 114 108 Z M 114 99 " clip-rule="nonzero"/></clipPath><clipPath id="5da6809125"><path d="M -24.140625 136.851562 L 231.308594 -34.328125 L 274.730469 30.46875 L 19.28125 201.648438 Z M -24.140625 136.851562 " clip-rule="nonzero"/></clipPath><clipPath id="050cd4e575"><path d="M -24.140625 136.851562 L 231.308594 -34.328125 L 274.730469 30.46875 L 19.28125 201.648438 Z M -24.140625 136.851562 " clip-rule="nonzero"/></clipPath><clipPath id="9125d5e3f2"><path d="M 128 89 L 138 89 L 138 98 L 128 98 Z M 128 89 " clip-rule="nonzero"/></clipPath><clipPath id="592ea5e268"><path d="M -24.140625 136.851562 L 231.308594 -34.328125 L 274.730469 30.46875 L 19.28125 201.648438 Z M -24.140625 136.851562 " clip-rule="nonzero"/></clipPath><clipPath id="c8b41d88f7"><path d="M -24.140625 136.851562 L 231.308594 -34.328125 L 274.730469 30.46875 L 19.28125 201.648438 Z M -24.140625 136.851562 " clip-rule="nonzero"/></clipPath><clipPath id="f8ff8b1c34"><path d="M 142 80 L 152 80 L 152 89 L 142 89 Z M 142 80 " clip-rule="nonzero"/></clipPath><clipPath id="b6f9bf2d51"><path d="M -24.140625 136.851562 L 231.308594 -34.328125 L 274.730469 30.46875 L 19.28125 201.648438 Z M -24.140625 136.851562 " clip-rule="nonzero"/></clipPath><clipPath id="388c7a172c"><path d="M -24.140625 136.851562 L 231.308594 -34.328125 L 274.730469 30.46875 L 19.28125 201.648438 Z M -24.140625 136.851562 " clip-rule="nonzero"/></clipPath><clipPath id="adf09036b4"><path d="M 156 72 L 167 72 L 167 80 L 156 80 Z M 156 72 " clip-rule="nonzero"/></clipPath><clipPath id="73e1b1f03a"><path d="M -24.140625 136.851562 L 231.308594 -34.328125 L 274.730469 30.46875 L 19.28125 201.648438 Z M -24.140625 136.851562 " clip-rule="nonzero"/></clipPath><clipPath id="e002ee07ba"><path d="M -24.140625 136.851562 L 231.308594 -34.328125 L 274.730469 30.46875 L 19.28125 201.648438 Z M -24.140625 136.851562 " clip-rule="nonzero"/></clipPath><clipPath id="b0cc0e7b17"><path d="M 171 64 L 182 64 L 182 72 L 171 72 Z M 171 64 " clip-rule="nonzero"/></clipPath><clipPath id="ca8587ac4c"><path d="M -24.140625 136.851562 L 231.308594 -34.328125 L 274.730469 30.46875 L 19.28125 201.648438 Z M -24.140625 136.851562 " clip-rule="nonzero"/></clipPath><clipPath id="38ea8e1ab2"><path d="M -24.140625 136.851562 L 231.308594 -34.328125 L 274.730469 30.46875 L 19.28125 201.648438 Z M -24.140625 136.851562 " clip-rule="nonzero"/></clipPath><clipPath id="c98e855615"><path d="M 186 57 L 197 57 L 197 64 L 186 64 Z M 186 57 " clip-rule="nonzero"/></clipPath><clipPath id="0c57019bea"><path d="M -24.140625 136.851562 L 231.308594 -34.328125 L 274.730469 30.46875 L 19.28125 201.648438 Z M -24.140625 136.851562 " clip-rule="nonzero"/></clipPath><clipPath id="366817ed88"><path d="M -24.140625 136.851562 L 231.308594 -34.328125 L 274.730469 30.46875 L 19.28125 201.648438 Z M -24.140625 136.851562 " clip-rule="nonzero"/></clipPath><clipPath id="9d6b084a24"><path d="M 202 50 L 212 50 L 212 57 L 202 57 Z M 202 50 " clip-rule="nonzero"/></clipPath><clipPath id="166288aa8e"><path d="M -24.140625 136.851562 L 231.308594 -34.328125 L 274.730469 30.46875 L 19.28125 201.648438 Z M -24.140625 136.851562 " clip-rule="nonzero"/></clipPath><clipPath id="f231bacd87"><path d="M -24.140625 136.851562 L 231.308594 -34.328125 L 274.730469 30.46875 L 19.28125 201.648438 Z M -24.140625 136.851562 " clip-rule="nonzero"/></clipPath><clipPath id="52fcc8b1c5"><path d="M 218 44 L 228 44 L 228 51 L 218 51 Z M 218 44 " clip-rule="nonzero"/></clipPath><clipPath id="be4476b018"><path d="M -24.140625 136.851562 L 231.308594 -34.328125 L 274.730469 30.46875 L 19.28125 201.648438 Z M -24.140625 136.851562 " clip-rule="nonzero"/></clipPath><clipPath id="828ce92795"><path d="M -24.140625 136.851562 L 231.308594 -34.328125 L 274.730469 30.46875 L 19.28125 201.648438 Z M -24.140625 136.851562 " clip-rule="nonzero"/></clipPath><clipPath id="d0d1f37258"><path d="M 234 39 L 244 39 L 244 45 L 234 45 Z M 234 39 " clip-rule="nonzero"/></clipPath><clipPath id="16f36e7693"><path d="M -24.140625 136.851562 L 231.308594 -34.328125 L 274.730469 30.46875 L 19.28125 201.648438 Z M -24.140625 136.851562 " clip-rule="nonzero"/></clipPath><clipPath id="81978116dd"><path d="M -24.140625 136.851562 L 231.308594 -34.328125 L 274.730469 30.46875 L 19.28125 201.648438 Z M -24.140625 136.851562 " clip-rule="nonzero"/></clipPath><clipPath id="0c9ffa6b31"><path d="M 250 34 L 260 34 L 260 40 L 250 40 Z M 250 34 " clip-rule="nonzero"/></clipPath><clipPath id="0477322eed"><path d="M -24.140625 136.851562 L 231.308594 -34.328125 L 274.730469 30.46875 L 19.28125 201.648438 Z M -24.140625 136.851562 " clip-rule="nonzero"/></clipPath><clipPath id="4b77c5392e"><path d="M -24.140625 136.851562 L 231.308594 -34.328125 L 274.730469 30.46875 L 19.28125 201.648438 Z M -24.140625 136.851562 " clip-rule="nonzero"/></clipPath><clipPath id="69ec0833f9"><path d="M 22 192 L 29 192 L 29 198 L 22 198 Z M 22 192 " clip-rule="nonzero"/></clipPath><clipPath id="7cfc9e9a8b"><path d="M -24.140625 136.851562 L 231.308594 -34.328125 L 274.730469 30.46875 L 19.28125 201.648438 Z M -24.140625 136.851562 " clip-rule="nonzero"/></clipPath><clipPath id="48351b2cb3"><path d="M -24.140625 136.851562 L 231.308594 -34.328125 L 274.730469 30.46875 L 19.28125 201.648438 Z M -24.140625 136.851562 " clip-rule="nonzero"/></clipPath><clipPath id="dc4e9ed0a6"><path d="M 1 162 L 24 162 L 24 191 L 1 191 Z M 1 162 " clip-rule="nonzero"/></clipPath><clipPath id="f0811a6a9c"><path d="M -24.140625 136.851562 L 231.308594 -34.328125 L 274.730469 30.46875 L 19.28125 201.648438 Z M -24.140625 136.851562 " clip-rule="nonzero"/></clipPath><clipPath id="69b9e7352d"><path d="M -24.140625 136.851562 L 231.308594 -34.328125 L 274.730469 30.46875 L 19.28125 201.648438 Z M -24.140625 136.851562 " clip-rule="nonzero"/></clipPath><clipPath id="a8d10b482b"><path d="M 262 31 L 270 31 L 270 37 L 262 37 Z M 262 31 " clip-rule="nonzero"/></clipPath><clipPath id="09b7d3e0cc"><path d="M -24.140625 136.851562 L 231.308594 -34.328125 L 274.730469 30.46875 L 19.28125 201.648438 Z M -24.140625 136.851562 " clip-rule="nonzero"/></clipPath><clipPath id="1a5322c41d"><path d="M -24.140625 136.851562 L 231.308594 -34.328125 L 274.730469 30.46875 L 19.28125 201.648438 Z M -24.140625 136.851562 " clip-rule="nonzero"/></clipPath><clipPath id="681a3d0860"><path d="M 241 1 L 264 1 L 264 30 L 241 30 Z M 241 1 " clip-rule="nonzero"/></clipPath><clipPath id="c9a006717e"><path d="M -24.140625 136.851562 L 231.308594 -34.328125 L 274.730469 30.46875 L 19.28125 201.648438 Z M -24.140625 136.851562 " clip-rule="nonzero"/></clipPath><clipPath id="1606801afc"><path d="M -24.140625 136.851562 L 231.308594 -34.328125 L 274.730469 30.46875 L 19.28125 201.648438 Z M -24.140625 136.851562 " clip-rule="nonzero"/></clipPath><clipPath id="15f6e59f86"><path d="M 97 48 L 158 48 L 158 108 L 97 108 Z M 97 48 " clip-rule="nonzero"/></clipPath><clipPath id="c79c548fee"><path d="M -24.140625 136.851562 L 231.308594 -34.328125 L 274.730469 30.46875 L 19.28125 201.648438 Z M -24.140625 136.851562 " clip-rule="nonzero"/></clipPath><clipPath id="eeab304bb0"><path d="M -24.140625 136.851562 L 231.308594 -34.328125 L 274.730469 30.46875 L 19.28125 201.648438 Z M -24.140625 136.851562 " clip-rule="nonzero"/></clipPath><clipPath id="e185881077"><path d="M 198 1.101562 L 338.679688 1.101562 L 338.679688 28.113281 L 198 28.113281 Z M 198 1.101562 " clip-rule="nonzero"/></clipPath><clipPath id="f677027728"><path d="M 0.28125 0.101562 L 140.679688 0.101562 L 140.679688 27.113281 L 0.28125 27.113281 Z M 0.28125 0.101562 " clip-rule="nonzero"/></clipPath><clipPath id="c7e3a340ba"><rect x="0" width="141" y="0" height="28"/></clipPath><clipPath id="ccb33face0"><path d="M 0.28125 4 L 201 4 L 201 34.800781 L 0.28125 34.800781 Z M 0.28125 4 " clip-rule="nonzero"/></clipPath><clipPath id="02a529d632"><path d="M 0.28125 0.078125 L 22 0.078125 L 22 23 L 0.28125 23 Z M 0.28125 0.078125 " clip-rule="nonzero"/></clipPath><clipPath id="5ae671e658"><path d="M 25 0.078125 L 46 0.078125 L 46 23 L 25 23 Z M 25 0.078125 " clip-rule="nonzero"/></clipPath><clipPath id="59c1f64157"><path d="M 48 0.078125 L 69 0.078125 L 69 23 L 48 23 Z M 48 0.078125 " clip-rule="nonzero"/></clipPath><clipPath id="681907cdf1"><path d="M 72 0.078125 L 88 0.078125 L 88 23 L 72 23 Z M 72 0.078125 " clip-rule="nonzero"/></clipPath><clipPath id="99b4eafa74"><path d="M 92 0.078125 L 111 0.078125 L 111 23 L 92 23 Z M 92 0.078125 " clip-rule="nonzero"/></clipPath><clipPath id="f18aa18ff7"><path d="M 114 0.078125 L 133 0.078125 L 133 23 L 114 23 Z M 114 0.078125 " clip-rule="nonzero"/></clipPath><clipPath id="2fd874119c"><path d="M 135 0.078125 L 155 0.078125 L 155 24 L 135 24 Z M 135 0.078125 " clip-rule="nonzero"/></clipPath><clipPath id="56b7327240"><path d="M 158 0.078125 L 180 0.078125 L 180 23 L 158 23 Z M 158 0.078125 " clip-rule="nonzero"/></clipPath><clipPath id="b41f7fafe4"><path d="M 182 0.078125 L 198 0.078125 L 198 23 L 182 23 Z M 182 0.078125 " clip-rule="nonzero"/></clipPath><clipPath id="999970ad21"><rect x="0" width="201" y="0" height="31"/></clipPath><clipPath id="8ea1373657"><rect x="0" width="339" y="0" height="35"/></clipPath></defs><rect x="-37.5" width="450" fill="#ffffff" y="-37.499999" height="449.999989" fill-opacity="1"/><rect x="-37.5" width="450" fill="#054061" y="-37.499999" height="449.999989" fill-opacity="1"/><g clip-path="url(#c15f7df6ad)"><path fill="#fffbf0" d="M 295.875 203.773438 L 321.105469 175.476562 L 288.027344 178.34375 L 333.113281 169.96875 C 331.429688 172.34375 326.1875 176.367188 323.449219 178.972656 Z M 297.261719 213.140625 C 297.953125 211.625 322.226562 190.78125 325.59375 187.710938 C 330.011719 183.65625 347.886719 167.296875 353.132812 160.667969 C 348.515625 160.667969 285.617188 169.933594 279.617188 170.824219 C 255.210938 174.453125 231.167969 177.949219 206.59375 181.117188 C 171.042969 185.699219 133.179688 192.164062 97.824219 196.648438 L 61.640625 201.828125 C 62.730469 203.707031 64.476562 205.554688 66.027344 207.269531 C 66.820312 208.128906 67.578125 208.984375 68.335938 209.84375 C 69.6875 211.328125 69.886719 211.03125 70.414062 213.074219 L 46.570312 213.175781 C 47.03125 214.527344 48.019531 215.746094 48.8125 216.96875 L 52.507812 216.96875 C 139.808594 217.363281 227.703125 217 315.136719 216.96875 C 317.3125 216.96875 317.578125 216.605469 318.765625 215.648438 C 318.832031 215.582031 319.855469 214.757812 319.953125 214.65625 C 320.941406 213.667969 320.382812 214.527344 321.039062 213.175781 Z M 257.453125 187.019531 C 258.476562 192.691406 255.769531 198.332031 251.613281 199.585938 C 241.390625 202.621094 236.707031 183.789062 247.625 179.5 C 252.671875 177.554688 256.695312 182.765625 257.453125 187.019531 Z M 232.121094 196.1875 C 228.660156 208.09375 215.335938 201.269531 218.765625 189.425781 C 222.03125 178.046875 235.488281 184.445312 232.121094 196.1875 Z M 208.34375 197.9375 C 207.75 201.136719 205.210938 205.851562 201.449219 203.410156 C 199.207031 201.960938 197.691406 197.011719 198.515625 192.921875 C 200.726562 181.941406 210.324219 187.347656 208.34375 197.9375 Z M 208.34375 197.9375 " fill-opacity="1" fill-rule="evenodd"/></g><g clip-path="url(#e9e4ecc990)"><path fill="#5fbffd" d="M 291.09375 220.230469 L 21.867188 220.199219 C 22.425781 222.507812 22.953125 222.078125 23.84375 223.925781 C 34.234375 224.683594 47.097656 224.023438 57.78125 224.023438 L 277.738281 224.023438 C 284.726562 224.023438 288.984375 225.378906 291.09375 220.230469 Z M 291.09375 220.230469 " fill-opacity="1" fill-rule="evenodd"/></g><path fill="#5fbffd" d="M 191.359375 177.882812 C 200.726562 176.433594 283.277344 164.425781 285.222656 163.175781 C 282.882812 153.148438 269.789062 155.886719 264.542969 156.578125 C 256.296875 157.699219 247.921875 159.050781 239.707031 160.371094 C 223.054688 163.007812 206.332031 165.285156 189.808594 167.988281 C 181.53125 169.339844 172.589844 170.761719 164.246094 171.75 L 89.90625 183.390625 C 89.839844 183.558594 89.808594 183.621094 89.773438 183.65625 C 89.808594 183.6875 89.839844 183.789062 89.941406 184.019531 C 89.941406 184.050781 90.007812 184.183594 90.007812 184.214844 L 96.933594 192.066406 C 100.328125 192.03125 188.160156 178.378906 191.359375 177.882812 Z M 191.359375 177.882812 " fill-opacity="1" fill-rule="evenodd"/><path fill="#fffbf0" d="M 112.730469 174.519531 L 259.003906 152.191406 C 258.605469 146.253906 250.625 143.320312 243.140625 144.507812 L 181.101562 154.003906 C 166.917969 156.148438 153.363281 158.195312 139.3125 160.335938 C 134.5625 161.0625 100.097656 166.011719 98.449219 166.703125 C 99.175781 168.21875 102.539062 171.683594 103.890625 173.367188 C 106.296875 176.300781 106.859375 175.476562 112.730469 174.519531 Z M 112.730469 174.519531 " fill-opacity="1" fill-rule="evenodd"/><path fill="#5fbffd" d="M 120.28125 157.964844 L 190.796875 147.375 C 198.976562 145.925781 210.191406 143.8125 218.535156 143.121094 C 218.203125 138.800781 214.148438 136.164062 209.792969 135.238281 C 205.769531 134.414062 199.636719 135.832031 195.613281 136.460938 C 183.839844 138.238281 114.015625 148.429688 112.367188 149.554688 C 113.257812 150.839844 118.535156 157.699219 120.28125 157.964844 Z M 120.28125 157.964844 " fill-opacity="1" fill-rule="evenodd"/><path fill="#fffbf0" d="M 150.296875 138.4375 L 172.625 135.171875 C 175.429688 128.707031 167.445312 126.167969 158.3125 129.203125 C 152.441406 131.183594 149.636719 131.90625 150.296875 138.4375 Z M 150.296875 138.4375 " fill-opacity="1" fill-rule="evenodd"/><path fill="#fffbf0" d="M 150.261719 129.269531 C 151.515625 128.179688 156.167969 125.410156 162.53125 124.816406 C 167.578125 124.355469 168.964844 124.816406 172.921875 126.203125 C 172.824219 119.835938 166.523438 120 160.785156 121.023438 C 155.472656 121.949219 150.03125 123.429688 150.261719 129.269531 Z M 150.261719 129.269531 " fill-opacity="1" fill-rule="evenodd"/><g clip-path="url(#59d3d3e15b)"><g clip-path="url(#848e1e19eb)"><g clip-path="url(#62aea6c137)"><path fill="#ff914d" d="M 37.625 182.398438 C 37.625 182.398438 37.289062 182.835938 36.789062 183.488281 C 36.289062 184.144531 35.628906 185.023438 34.976562 185.90625 C 34.324219 186.789062 33.683594 187.679688 33.210938 188.351562 C 32.980469 188.683594 32.785156 188.964844 32.648438 189.160156 C 32.519531 189.347656 32.445312 189.457031 32.445312 189.457031 L 29.90625 187.757812 C 29.90625 187.757812 29.988281 187.636719 30.128906 187.425781 C 30.269531 187.222656 30.472656 186.9375 30.714844 186.589844 C 31.199219 185.902344 31.855469 184.992188 32.515625 184.09375 C 33.179688 183.195312 33.851562 182.304688 34.355469 181.640625 C 34.863281 180.976562 35.203125 180.535156 35.203125 180.535156 L 37.625 182.398438 " fill-opacity="1" fill-rule="nonzero"/></g></g></g><g clip-path="url(#dce921cdbd)"><g clip-path="url(#6d5826d9e9)"><g clip-path="url(#91fd28b18b)"><path fill="#ff914d" d="M 48.277344 169.382812 C 48.277344 169.382812 48.1875 169.488281 48.03125 169.667969 C 47.875 169.851562 47.648438 170.113281 47.382812 170.425781 C 46.84375 171.054688 46.125 171.890625 45.417969 172.738281 C 44.707031 173.578125 44.007812 174.429688 43.480469 175.066406 C 42.953125 175.703125 42.605469 176.128906 42.605469 176.128906 L 40.238281 174.195312 C 40.238281 174.195312 40.59375 173.765625 41.121094 173.121094 C 41.65625 172.476562 42.363281 171.617188 43.082031 170.769531 C 43.792969 169.917969 44.519531 169.074219 45.0625 168.4375 C 45.332031 168.121094 45.558594 167.859375 45.71875 167.675781 C 45.875 167.488281 45.96875 167.382812 45.96875 167.382812 L 48.277344 169.382812 " fill-opacity="1" fill-rule="nonzero"/></g></g></g><g clip-path="url(#6639192138)"><g clip-path="url(#fe50b84bff)"><g clip-path="url(#fa43e107d4)"><path fill="#ff914d" d="M 59.585938 156.90625 C 59.585938 156.90625 59.207031 157.304688 58.636719 157.90625 C 58.074219 158.511719 57.320312 159.316406 56.570312 160.125 C 55.824219 160.9375 55.078125 161.75 54.519531 162.359375 C 54.238281 162.664062 54.007812 162.917969 53.84375 163.097656 C 53.683594 163.277344 53.59375 163.378906 53.59375 163.378906 L 51.324219 161.328125 C 51.324219 161.328125 51.417969 161.226562 51.582031 161.042969 C 51.742188 160.863281 51.976562 160.605469 52.257812 160.300781 C 52.824219 159.6875 53.574219 158.867188 54.328125 158.046875 C 55.085938 157.234375 55.84375 156.421875 56.410156 155.8125 C 56.984375 155.207031 57.367188 154.804688 57.367188 154.804688 L 59.585938 156.90625 " fill-opacity="1" fill-rule="nonzero"/></g></g></g><g clip-path="url(#f6bea77c89)"><g clip-path="url(#51fcec67de)"><g clip-path="url(#77c6f6c09e)"><path fill="#ff914d" d="M 71.425781 144.925781 C 71.425781 144.925781 71.03125 145.308594 70.4375 145.890625 C 69.847656 146.46875 69.054688 147.234375 68.277344 148.015625 C 67.496094 148.796875 66.710938 149.570312 66.128906 150.160156 C 65.550781 150.75 65.164062 151.140625 65.164062 151.140625 L 62.988281 148.996094 C 62.988281 148.996094 63.375 148.597656 63.960938 148.003906 C 64.546875 147.410156 65.339844 146.632812 66.125 145.847656 C 66.910156 145.058594 67.707031 144.285156 68.304688 143.703125 C 68.898438 143.121094 69.296875 142.734375 69.296875 142.734375 L 71.425781 144.925781 " fill-opacity="1" fill-rule="nonzero"/></g></g></g><g clip-path="url(#9375fb2c6e)"><g clip-path="url(#eed8e57e3f)"><g clip-path="url(#40ccd15aa5)"><path fill="#ff914d" d="M 83.746094 133.433594 C 83.746094 133.433594 83.335938 133.804688 82.722656 134.359375 C 82.414062 134.636719 82.054688 134.957031 81.671875 135.304688 C 81.289062 135.652344 80.882812 136.027344 80.476562 136.398438 C 79.664062 137.144531 78.851562 137.890625 78.242188 138.449219 C 77.640625 139.015625 77.238281 139.394531 77.238281 139.394531 L 75.148438 137.160156 C 75.148438 137.160156 75.554688 136.78125 76.164062 136.210938 C 76.777344 135.648438 77.59375 134.894531 78.414062 134.144531 C 78.824219 133.769531 79.234375 133.394531 79.617188 133.039062 C 80.003906 132.691406 80.363281 132.367188 80.675781 132.089844 C 81.292969 131.53125 81.707031 131.160156 81.707031 131.160156 L 83.746094 133.433594 " fill-opacity="1" fill-rule="nonzero"/></g></g></g><g clip-path="url(#4f5e853966)"><g clip-path="url(#49bf838da9)"><g clip-path="url(#710d1eb619)"><path fill="#ff914d" d="M 96.507812 122.433594 C 96.507812 122.433594 96.085938 122.789062 95.445312 123.3125 C 94.8125 123.847656 93.96875 124.558594 93.125 125.269531 C 92.703125 125.625 92.28125 125.980469 91.886719 126.3125 C 91.496094 126.652344 91.128906 126.964844 90.816406 127.238281 C 90.1875 127.777344 89.769531 128.136719 89.769531 128.136719 L 87.773438 125.824219 C 87.773438 125.824219 88.195312 125.460938 88.828125 124.917969 C 89.140625 124.644531 89.507812 124.328125 89.902344 123.988281 C 90.304688 123.652344 90.726562 123.292969 91.152344 122.9375 C 92.003906 122.21875 92.851562 121.503906 93.488281 120.96875 C 94.132812 120.4375 94.558594 120.082031 94.558594 120.082031 L 96.507812 122.433594 " fill-opacity="1" fill-rule="nonzero"/></g></g></g><g clip-path="url(#1646b2a439)"><g clip-path="url(#bcf58da697)"><g clip-path="url(#c572f3e0a9)"><path fill="#ff914d" d="M 109.6875 111.9375 C 109.6875 111.9375 109.25 112.273438 108.59375 112.777344 C 108.265625 113.027344 107.882812 113.320312 107.472656 113.636719 C 107.066406 113.957031 106.628906 114.296875 106.199219 114.636719 C 105.332031 115.320312 104.460938 116 103.8125 116.511719 C 103.484375 116.769531 103.214844 116.980469 103.027344 117.132812 C 102.839844 117.285156 102.734375 117.371094 102.734375 117.371094 L 100.828125 114.984375 C 100.828125 114.984375 100.933594 114.894531 101.125 114.742188 C 101.3125 114.589844 101.585938 114.375 101.914062 114.117188 C 102.566406 113.601562 103.441406 112.917969 104.316406 112.230469 C 104.75 111.886719 105.191406 111.546875 105.597656 111.222656 C 106.011719 110.90625 106.398438 110.609375 106.726562 110.355469 C 107.390625 109.851562 107.832031 109.511719 107.832031 109.511719 L 109.6875 111.9375 " fill-opacity="1" fill-rule="nonzero"/></g></g></g><g clip-path="url(#78563c3c67)"><g clip-path="url(#5da6809125)"><g clip-path="url(#050cd4e575)"><path fill="#ff914d" d="M 123.257812 101.949219 C 123.257812 101.949219 122.808594 102.269531 122.132812 102.75 C 121.460938 103.230469 120.554688 103.859375 119.664062 104.511719 C 117.882812 105.8125 116.097656 107.113281 116.097656 107.113281 L 114.285156 104.652344 C 114.285156 104.652344 116.082031 103.34375 117.875 102.035156 C 118.773438 101.378906 119.683594 100.746094 120.363281 100.257812 C 121.042969 99.777344 121.496094 99.453125 121.496094 99.453125 L 123.257812 101.949219 " fill-opacity="1" fill-rule="nonzero"/></g></g></g><g clip-path="url(#9125d5e3f2)"><g clip-path="url(#592ea5e268)"><g clip-path="url(#c8b41d88f7)"><path fill="#ff914d" d="M 137.199219 92.488281 C 137.199219 92.488281 136.738281 92.792969 136.046875 93.242188 C 135.355469 93.699219 134.425781 94.296875 133.511719 94.910156 C 131.679688 96.144531 129.851562 97.375 129.851562 97.375 L 128.132812 94.847656 C 128.132812 94.847656 129.976562 93.609375 131.820312 92.367188 C 132.742188 91.746094 133.675781 91.144531 134.371094 90.6875 C 135.070312 90.230469 135.53125 89.925781 135.53125 89.925781 L 137.199219 92.488281 " fill-opacity="1" fill-rule="nonzero"/></g></g></g><g clip-path="url(#f8ff8b1c34)"><g clip-path="url(#b6f9bf2d51)"><g clip-path="url(#388c7a172c)"><path fill="#ff914d" d="M 151.496094 83.566406 C 151.496094 83.566406 151.019531 83.851562 150.3125 84.277344 C 149.601562 84.699219 148.652344 85.261719 147.714844 85.847656 C 145.839844 87.007812 143.960938 88.164062 143.960938 88.164062 L 142.339844 85.574219 C 142.339844 85.574219 144.230469 84.410156 146.121094 83.242188 C 147.0625 82.652344 148.019531 82.085938 148.734375 81.65625 C 149.449219 81.230469 149.925781 80.945312 149.925781 80.945312 L 151.496094 83.566406 " fill-opacity="1" fill-rule="nonzero"/></g></g></g><g clip-path="url(#adf09036b4)"><g clip-path="url(#73e1b1f03a)"><g clip-path="url(#e002ee07ba)"><path fill="#ff914d" d="M 166.117188 75.195312 C 166.117188 75.195312 165.632812 75.460938 164.90625 75.855469 C 164.179688 76.25 163.222656 76.796875 162.257812 77.335938 C 161.296875 77.875 160.332031 78.414062 159.613281 78.820312 C 159.25 79.023438 158.953125 79.195312 158.746094 79.316406 C 158.535156 79.4375 158.417969 79.507812 158.417969 79.507812 L 156.894531 76.855469 C 156.894531 76.855469 157.015625 76.785156 157.226562 76.664062 C 157.433594 76.542969 157.734375 76.367188 158.101562 76.164062 C 158.828125 75.757812 159.796875 75.214844 160.761719 74.667969 C 161.734375 74.128906 162.699219 73.578125 163.429688 73.175781 C 164.160156 72.78125 164.648438 72.515625 164.648438 72.515625 L 166.117188 75.195312 " fill-opacity="1" fill-rule="nonzero"/></g></g></g><g clip-path="url(#b0cc0e7b17)"><g clip-path="url(#ca8587ac4c)"><g clip-path="url(#38ea8e1ab2)"><path fill="#ff914d" d="M 181.046875 67.390625 C 181.046875 67.390625 179.082031 68.386719 177.109375 69.382812 C 176.617188 69.632812 176.128906 69.882812 175.664062 70.117188 C 175.207031 70.355469 174.78125 70.578125 174.414062 70.769531 C 173.679688 71.15625 173.191406 71.410156 173.191406 71.410156 L 171.773438 68.703125 C 171.773438 68.703125 172.265625 68.445312 173.003906 68.058594 C 173.375 67.867188 173.804688 67.640625 174.265625 67.398438 C 174.730469 67.164062 175.226562 66.910156 175.71875 66.660156 C 177.703125 65.65625 179.6875 64.65625 179.6875 64.65625 L 181.046875 67.390625 " fill-opacity="1" fill-rule="nonzero"/></g></g></g><g clip-path="url(#c98e855615)"><g clip-path="url(#0c57019bea)"><g clip-path="url(#366817ed88)"><path fill="#ff914d" d="M 196.277344 60.175781 C 196.277344 60.175781 195.773438 60.402344 195.019531 60.742188 C 194.265625 61.082031 193.257812 61.53125 192.261719 62.007812 C 190.261719 62.941406 188.265625 63.878906 188.265625 63.878906 L 186.953125 61.121094 C 186.953125 61.121094 188.964844 60.175781 190.976562 59.234375 C 191.980469 58.757812 192.992188 58.304688 193.753906 57.960938 C 194.511719 57.617188 195.019531 57.390625 195.019531 57.390625 L 196.277344 60.175781 " fill-opacity="1" fill-rule="nonzero"/></g></g></g><g clip-path="url(#9d6b084a24)"><g clip-path="url(#166288aa8e)"><g clip-path="url(#f231bacd87)"><path fill="#ff914d" d="M 211.761719 53.535156 C 211.761719 53.535156 209.722656 54.378906 207.683594 55.222656 C 206.664062 55.648438 205.640625 56.0625 204.886719 56.398438 C 204.125 56.726562 203.621094 56.945312 203.621094 56.945312 L 202.414062 54.136719 C 202.414062 54.136719 202.925781 53.914062 203.6875 53.585938 C 204.449219 53.25 205.480469 52.828125 206.507812 52.402344 C 208.5625 51.554688 210.613281 50.703125 210.613281 50.703125 L 211.761719 53.535156 " fill-opacity="1" fill-rule="nonzero"/></g></g></g><g clip-path="url(#52fcc8b1c5)"><g clip-path="url(#be4476b018)"><g clip-path="url(#828ce92795)"><path fill="#ff914d" d="M 227.5 47.519531 C 227.5 47.519531 226.980469 47.707031 226.203125 47.984375 C 225.8125 48.125 225.355469 48.285156 224.871094 48.464844 C 224.386719 48.648438 223.871094 48.84375 223.355469 49.035156 C 221.292969 49.816406 219.226562 50.59375 219.226562 50.59375 L 218.128906 47.742188 C 218.128906 47.742188 220.207031 46.957031 222.289062 46.171875 C 222.808594 45.976562 223.328125 45.78125 223.816406 45.597656 C 224.304688 45.417969 224.761719 45.253906 225.15625 45.113281 C 225.9375 44.832031 226.460938 44.644531 226.460938 44.644531 L 227.5 47.519531 " fill-opacity="1" fill-rule="nonzero"/></g></g></g><g clip-path="url(#d0d1f37258)"><g clip-path="url(#16f36e7693)"><g clip-path="url(#81978116dd)"><path fill="#ff914d" d="M 243.453125 42.097656 C 243.453125 42.097656 241.351562 42.777344 239.253906 43.453125 C 238.992188 43.539062 238.726562 43.621094 238.46875 43.707031 C 238.210938 43.792969 237.957031 43.878906 237.714844 43.960938 C 237.226562 44.128906 236.769531 44.285156 236.375 44.417969 C 235.59375 44.683594 235.070312 44.863281 235.070312 44.863281 L 234.085938 41.96875 C 234.085938 41.96875 234.613281 41.792969 235.398438 41.523438 C 235.792969 41.386719 236.253906 41.234375 236.746094 41.0625 C 236.992188 40.980469 237.25 40.894531 237.507812 40.804688 C 237.769531 40.722656 238.03125 40.636719 238.296875 40.550781 C 240.410156 39.867188 242.527344 39.1875 242.527344 39.1875 L 243.453125 42.097656 " fill-opacity="1" fill-rule="nonzero"/></g></g></g><g clip-path="url(#0c9ffa6b31)"><g clip-path="url(#0477322eed)"><g clip-path="url(#4b77c5392e)"><path fill="#ff914d" d="M 259.597656 37.28125 C 259.597656 37.28125 257.476562 37.886719 255.355469 38.496094 C 254.296875 38.796875 253.234375 39.101562 252.4375 39.328125 C 251.648438 39.570312 251.121094 39.730469 251.121094 39.730469 L 250.246094 36.800781 C 250.246094 36.800781 250.777344 36.640625 251.574219 36.398438 C 252.375 36.167969 253.445312 35.863281 254.511719 35.558594 C 256.648438 34.949219 258.785156 34.335938 258.785156 34.335938 L 259.597656 37.28125 " fill-opacity="1" fill-rule="nonzero"/></g></g></g><g clip-path="url(#69ec0833f9)"><g clip-path="url(#7cfc9e9a8b)"><g clip-path="url(#48351b2cb3)"><path fill="#ff914d" d="M 28.800781 192.667969 C 29.359375 193.496094 28.464844 195.070312 26.804688 196.183594 C 25.144531 197.292969 23.347656 197.523438 22.792969 196.695312 C 22.238281 195.863281 23.132812 194.289062 24.792969 193.175781 C 26.449219 192.066406 28.246094 191.835938 28.800781 192.667969 " fill-opacity="1" fill-rule="nonzero"/></g></g></g><g clip-path="url(#dc4e9ed0a6)"><g clip-path="url(#f0811a6a9c)"><g clip-path="url(#69b9e7352d)"><path fill="#ff914d" d="M 13.324219 176.066406 C 11.207031 177.484375 8.34375 176.917969 6.925781 174.804688 C 5.507812 172.6875 6.074219 169.824219 8.191406 168.402344 C 10.304688 166.988281 13.171875 167.550781 14.589844 169.667969 C 16.007812 171.785156 15.441406 174.648438 13.324219 176.066406 Z M 17.710938 166.558594 C 11.039062 157.335938 -3.128906 166.832031 2.863281 176.507812 C 8.210938 185.136719 23.058594 190.59375 23.058594 190.59375 C 23.058594 190.59375 23.660156 174.785156 17.710938 166.558594 " fill-opacity="1" fill-rule="nonzero"/></g></g></g><g clip-path="url(#a8d10b482b)"><g clip-path="url(#09b7d3e0cc)"><g clip-path="url(#1a5322c41d)"><path fill="#ff914d" d="M 269.054688 31.671875 C 269.609375 32.5 268.714844 34.074219 267.054688 35.1875 C 265.398438 36.296875 263.601562 36.527344 263.046875 35.699219 C 262.488281 34.867188 263.382812 33.292969 265.042969 32.179688 C 266.703125 31.070312 268.496094 30.839844 269.054688 31.671875 " fill-opacity="1" fill-rule="nonzero"/></g></g></g><g clip-path="url(#681a3d0860)"><g clip-path="url(#c9a006717e)"><g clip-path="url(#1606801afc)"><path fill="#ff914d" d="M 253.578125 15.070312 C 251.460938 16.488281 248.59375 15.921875 247.175781 13.808594 C 245.757812 11.691406 246.324219 8.828125 248.441406 7.40625 C 250.558594 5.992188 253.421875 6.554688 254.839844 8.671875 C 256.257812 10.789062 255.691406 13.652344 253.578125 15.070312 Z M 257.960938 5.5625 C 251.289062 -3.660156 237.121094 5.835938 243.113281 15.511719 C 248.460938 24.144531 263.308594 29.597656 263.308594 29.597656 C 263.308594 29.597656 263.910156 13.789062 257.960938 5.5625 " fill-opacity="1" fill-rule="nonzero"/></g></g></g><g clip-path="url(#15f6e59f86)"><g clip-path="url(#c79c548fee)"><g clip-path="url(#eeab304bb0)"><path fill="#ff914d" d="M 149.515625 107.503906 L 151.460938 104.667969 C 152.214844 103.566406 152.476562 102.195312 152.179688 100.890625 L 145.4375 71.351562 C 145.273438 70.628906 145.570312 69.878906 146.1875 69.46875 L 152.457031 65.296875 C 154.976562 63.632812 156.414062 61.566406 157.238281 59.789062 C 158.199219 57.707031 156.46875 55.390625 154.199219 55.730469 C 152.261719 56.019531 149.871094 56.820312 147.566406 58.769531 L 141.800781 63.609375 C 141.234375 64.085938 140.429688 64.164062 139.78125 63.800781 L 113.332031 49.019531 C 112.164062 48.367188 110.777344 48.234375 109.503906 48.648438 L 106.238281 49.714844 C 105.742188 49.875 105.632812 50.527344 106.046875 50.839844 L 114.886719 57.585938 C 114.382812 58.175781 114.328125 59.046875 114.796875 59.699219 C 115.355469 60.484375 116.476562 60.632812 117.246094 60.054688 L 117.6875 59.722656 L 123.257812 63.972656 C 122.871094 64.554688 122.867188 65.34375 123.304688 65.9375 C 123.871094 66.707031 124.980469 66.847656 125.742188 66.273438 L 126.015625 66.074219 L 132.75 71.210938 L 112.417969 88.289062 C 111.644531 88.933594 110.609375 89.171875 109.632812 88.921875 L 101.140625 86.753906 C 100.691406 86.640625 100.089844 86.746094 99.476562 87.046875 L 97.898438 87.828125 C 97.65625 87.945312 97.535156 88.203125 97.683594 88.273438 L 100.855469 89.820312 C 100.558594 90.105469 100.433594 90.449219 100.578125 90.640625 C 100.746094 90.863281 101.207031 90.800781 101.609375 90.5 L 101.859375 90.3125 L 103.859375 91.285156 C 103.617188 91.554688 103.527344 91.855469 103.65625 92.03125 C 103.824219 92.25 104.285156 92.1875 104.691406 91.886719 L 104.847656 91.769531 L 108.15625 93.378906 L 108.769531 97.007812 L 108.613281 97.125 C 108.210938 97.425781 108.019531 97.851562 108.183594 98.074219 C 108.316406 98.25 108.632812 98.246094 108.957031 98.089844 L 109.328125 100.28125 L 109.078125 100.46875 C 108.675781 100.773438 108.484375 101.195312 108.648438 101.421875 C 108.792969 101.613281 109.160156 101.589844 109.515625 101.386719 L 110.105469 104.863281 C 110.132812 105.027344 110.417969 104.980469 110.597656 104.785156 L 111.789062 103.488281 C 112.25 102.984375 112.523438 102.4375 112.539062 101.976562 L 112.847656 93.214844 C 112.882812 92.207031 113.402344 91.28125 114.242188 90.722656 L 136.347656 76.015625 L 139.382812 83.925781 L 139.113281 84.128906 C 138.347656 84.699219 138.171875 85.804688 138.75 86.5625 C 139.199219 87.148438 139.957031 87.367188 140.625 87.160156 L 143.136719 93.699219 L 142.691406 94.03125 C 141.921875 94.609375 141.75 95.722656 142.339844 96.484375 C 142.835938 97.117188 143.691406 97.308594 144.398438 96.992188 L 148.378906 107.371094 C 148.566406 107.859375 149.222656 107.933594 149.515625 107.503906 " fill-opacity="1" fill-rule="nonzero"/></g></g></g><g transform="matrix(1, 0, 0, 1, 23, 318)"><g clip-path="url(#8ea1373657)"><g clip-path="url(#e185881077)"><g transform="matrix(1, 0, 0, 1, 198, 1)"><g clip-path="url(#c7e3a340ba)"><g clip-path="url(#f677027728)"><path fill="#fffbf0" d="M 25.128906 18.535156 C 30.054688 19.816406 34.800781 20.488281 36.824219 20.738281 L 36.824219 18.433594 C 36.820312 18.304688 36.816406 18.175781 36.816406 18.046875 L 36.824219 17.574219 L 36.828125 17.574219 C 37.082031 11.496094 42.082031 6.703125 48.160156 6.703125 C 54.242188 6.703125 59.242188 11.496094 59.496094 17.574219 L 59.5 17.574219 L 59.503906 18.046875 C 59.503906 18.175781 59.503906 18.304688 59.5 18.429688 L 59.5 25.925781 L 112.546875 25.925781 L 112.546875 21.417969 C 112.726562 17.230469 116.171875 13.925781 120.363281 13.925781 C 124.554688 13.925781 128 17.230469 128.175781 21.417969 L 128.179688 22.011719 L 128.179688 25.925781 L 140.1875 25.925781 L 138.503906 23.296875 L 138.503906 19.488281 C 138.503906 17.855469 137.273438 16.046875 135.730469 15.515625 C 132.070312 14.253906 124.949219 12.039062 115.289062 10.183594 C 114.246094 9.542969 113.199219 8.972656 112.5 8.609375 C 112.03125 8.363281 111.644531 7.742188 111.644531 7.214844 L 111.644531 5.769531 L 113.710938 5.769531 C 114.273438 5.769531 114.730469 5.3125 114.730469 4.75 L 114.730469 3.507812 C 114.730469 2.941406 114.273438 2.480469 113.710938 2.484375 C 112.523438 2.488281 110.511719 2.535156 108.785156 2.742188 C 107.128906 2.9375 105.601562 4.335938 104.6875 5.359375 C 104.175781 5.9375 103.214844 6.617188 102.46875 6.828125 L 99.898438 7.554688 C 94.070312 6.664062 91.339844 6.398438 91.339844 6.398438 L 85.050781 2.371094 C 84.078125 1.75 82.359375 1.207031 81.207031 1.152344 C 75.890625 0.914062 62.0625 0.300781 59.609375 0.203125 C 56.554688 0.0859375 40.003906 5.320312 40.003906 5.320312 L 14.734375 5.320312 C 13.113281 5.320312 11.570312 6.023438 10.503906 7.246094 L 7.925781 10.207031 C 7.925781 10.207031 8.949219 11.921875 17.089844 15.75 C 18.660156 16.488281 20.394531 17.132812 22.175781 17.691406 L 4.621094 21.761719 C 4.199219 21.253906 3.558594 20.929688 2.84375 20.929688 C 1.570312 20.929688 0.539062 21.960938 0.539062 23.234375 C 0.539062 24.507812 1.570312 25.542969 2.84375 25.542969 C 3.808594 25.542969 4.636719 24.949219 4.980469 24.109375 L 40.796875 24.109375 C 42.546875 26.242188 45.199219 27.605469 48.175781 27.605469 C 53.441406 27.605469 57.710938 23.335938 57.710938 18.070312 C 57.710938 12.800781 53.441406 8.53125 48.175781 8.53125 C 42.90625 8.53125 38.640625 12.800781 38.640625 18.070312 C 38.640625 19.714844 39.054688 21.265625 39.792969 22.617188 L 7.527344 22.617188 Z M 114.511719 21.730469 C 114.511719 24.964844 117.136719 27.589844 120.375 27.589844 C 123.609375 27.589844 126.230469 24.964844 126.230469 21.730469 C 126.230469 18.492188 123.609375 15.871094 120.375 15.871094 C 117.136719 15.871094 114.511719 18.492188 114.511719 21.730469 " fill-opacity="1" fill-rule="nonzero"/></g></g></g></g><g clip-path="url(#ccb33face0)"><g transform="matrix(1, 0, 0, 1, 0.000000000000003553, 4)"><g clip-path="url(#999970ad21)"><g clip-path="url(#02a529d632)"><g fill="#5fbffd" fill-opacity="1"><g transform="translate(0.366568, 22.31235)"><g><path d="M 0.25 0 L 8.453125 -21.875 L 13.140625 -21.875 L 21.296875 0 L 17.25 0 L 15.546875 -4.78125 L 6.015625 -4.78125 L 4.296875 0 Z M 6.84375 -7.78125 L 14.6875 -7.78125 L 10.828125 -18.546875 L 10.765625 -18.546875 Z M 6.84375 -7.78125 "/></g></g></g></g><g clip-path="url(#5ae671e658)"><g fill="#5fbffd" fill-opacity="1"><g transform="translate(23.444913, 22.31235)"><g><path d="M 1.796875 0 L 1.796875 -21.875 L 10.21875 -21.875 C 13.957031 -21.875 16.828125 -20.925781 18.828125 -19.03125 C 20.835938 -17.144531 21.84375 -14.441406 21.84375 -10.921875 C 21.84375 -7.421875 20.835938 -4.722656 18.828125 -2.828125 C 16.828125 -0.941406 13.957031 0 10.21875 0 Z M 5.5625 -3.203125 L 10.21875 -3.203125 C 12.726562 -3.203125 14.648438 -3.863281 15.984375 -5.1875 C 17.316406 -6.519531 17.984375 -8.429688 17.984375 -10.921875 C 17.984375 -13.429688 17.316406 -15.347656 15.984375 -16.671875 C 14.648438 -18.003906 12.726562 -18.671875 10.21875 -18.671875 L 5.5625 -18.671875 Z M 5.5625 -3.203125 "/></g></g></g></g><g clip-path="url(#59c1f64157)"><g fill="#5fbffd" fill-opacity="1"><g transform="translate(47.849899, 22.31235)"><g><path d="M 8.421875 0 L 0.25 -21.875 L 4.265625 -21.875 L 10.640625 -3.671875 L 10.703125 -3.671875 L 17.03125 -21.875 L 21.078125 -21.875 L 12.875 0 Z M 8.421875 0 "/></g></g></g></g><g clip-path="url(#681907cdf1)"><g fill="#5fbffd" fill-opacity="1"><g transform="translate(70.712271, 22.31235)"><g><path d="M 1.796875 0 L 1.796875 -21.875 L 16.9375 -21.875 L 16.9375 -18.671875 L 5.5 -18.671875 L 5.5 -12.71875 L 15.703125 -12.71875 L 15.703125 -9.78125 L 5.5 -9.78125 L 5.5 -3.203125 L 17.25 -3.203125 L 17.25 0 Z M 1.796875 0 "/></g></g></g></g><g clip-path="url(#99b4eafa74)"><g fill="#5fbffd" fill-opacity="1"><g transform="translate(90.211747, 22.31235)"><g><path d="M 1.796875 0 L 1.796875 -21.875 L 6.515625 -21.875 L 16.609375 -4.71875 L 16.671875 -4.71875 L 16.671875 -21.875 L 20.390625 -21.875 L 20.390625 0 L 15.671875 0 L 5.5625 -17.09375 L 5.5 -17.09375 L 5.5 0 Z M 1.796875 0 "/></g></g></g></g><g clip-path="url(#f18aa18ff7)"><g fill="#5fbffd" fill-opacity="1"><g transform="translate(113.93798, 22.31235)"><g><path d="M 7.34375 0 L 7.34375 -18.515625 L 0.375 -18.515625 L 0.375 -21.875 L 18.109375 -21.875 L 18.109375 -18.515625 L 11.171875 -18.515625 L 11.171875 0 Z M 7.34375 0 "/></g></g></g></g><g clip-path="url(#2fd874119c)"><g fill="#5fbffd" fill-opacity="1"><g transform="translate(133.992796, 22.31235)"><g><path d="M 10.828125 0.765625 C 8.941406 0.765625 7.296875 0.390625 5.890625 -0.359375 C 4.492188 -1.109375 3.414062 -2.160156 2.65625 -3.515625 C 1.894531 -4.878906 1.515625 -6.472656 1.515625 -8.296875 L 1.515625 -21.875 L 5.375 -21.875 L 5.375 -8.359375 C 5.375 -7.296875 5.59375 -6.320312 6.03125 -5.4375 C 6.476562 -4.550781 7.113281 -3.847656 7.9375 -3.328125 C 8.757812 -2.816406 9.722656 -2.5625 10.828125 -2.5625 C 12.492188 -2.5625 13.820312 -3.09375 14.8125 -4.15625 C 15.800781 -5.226562 16.296875 -6.628906 16.296875 -8.359375 L 16.296875 -21.875 L 20.15625 -21.875 L 20.15625 -8.296875 C 20.15625 -6.472656 19.769531 -4.878906 19 -3.515625 C 18.226562 -2.160156 17.144531 -1.109375 15.75 -0.359375 C 14.363281 0.390625 12.722656 0.765625 10.828125 0.765625 Z M 10.828125 0.765625 "/></g></g></g></g><g clip-path="url(#56b7327240)"><g fill="#5fbffd" fill-opacity="1"><g transform="translate(157.194552, 22.31235)"><g><path d="M 17.84375 0.59375 C 16.875 0.59375 16.078125 0.328125 15.453125 -0.203125 C 14.835938 -0.742188 14.398438 -1.457031 14.140625 -2.34375 L 12.984375 -6.265625 C 12.785156 -6.984375 12.429688 -7.578125 11.921875 -8.046875 C 11.421875 -8.523438 10.820312 -8.765625 10.125 -8.765625 L 5.609375 -8.765625 L 5.609375 0 L 1.796875 0 L 1.796875 -21.875 L 12.09375 -21.875 C 13.695312 -21.875 15.101562 -21.601562 16.3125 -21.0625 C 17.53125 -20.519531 18.472656 -19.757812 19.140625 -18.78125 C 19.816406 -17.800781 20.15625 -16.664062 20.15625 -15.375 C 20.15625 -13.863281 19.660156 -12.578125 18.671875 -11.515625 C 17.679688 -10.460938 16.3125 -9.78125 14.5625 -9.46875 L 14.5625 -9.4375 C 15.15625 -9.175781 15.628906 -8.804688 15.984375 -8.328125 C 16.335938 -7.859375 16.601562 -7.304688 16.78125 -6.671875 L 17.6875 -3.390625 C 17.789062 -3.046875 17.945312 -2.753906 18.15625 -2.515625 C 18.375 -2.273438 18.648438 -2.15625 18.984375 -2.15625 C 19.285156 -2.15625 19.59375 -2.265625 19.90625 -2.484375 C 20.21875 -2.703125 20.484375 -2.984375 20.703125 -3.328125 L 21.90625 -1.359375 C 21.414062 -0.785156 20.820312 -0.316406 20.125 0.046875 C 19.425781 0.410156 18.664062 0.59375 17.84375 0.59375 Z M 5.609375 -11.703125 L 11.75 -11.703125 C 13.113281 -11.703125 14.210938 -12.023438 15.046875 -12.671875 C 15.878906 -13.316406 16.296875 -14.175781 16.296875 -15.25 C 16.296875 -16.289062 15.878906 -17.144531 15.046875 -17.8125 C 14.210938 -18.488281 13.113281 -18.828125 11.75 -18.828125 L 5.609375 -18.828125 Z M 5.609375 -11.703125 "/></g></g></g></g><g clip-path="url(#b41f7fafe4)"><g fill="#5fbffd" fill-opacity="1"><g transform="translate(180.704829, 22.31235)"><g><path d="M 1.796875 0 L 1.796875 -21.875 L 16.9375 -21.875 L 16.9375 -18.671875 L 5.5 -18.671875 L 5.5 -12.71875 L 15.703125 -12.71875 L 15.703125 -9.78125 L 5.5 -9.78125 L 5.5 -3.203125 L 17.25 -3.203125 L 17.25 0 Z M 1.796875 0 "/></g></g></g></g></g></g></g></g></g><g fill="#5fbffd" fill-opacity="1"><g transform="translate(47.671876, 285.753526)"><g><path d="M 21.359375 1.296875 C 17.515625 1.296875 14.101562 0.398438 11.125 -1.390625 C 8.15625 -3.191406 5.835938 -5.691406 4.171875 -8.890625 C 2.515625 -12.085938 1.6875 -15.78125 1.6875 -19.96875 C 1.6875 -24.1875 2.570312 -27.90625 4.34375 -31.125 C 6.125 -34.34375 8.59375 -36.847656 11.75 -38.640625 C 14.90625 -40.429688 18.5625 -41.328125 22.71875 -41.328125 C 25.664062 -41.328125 28.375 -40.773438 30.84375 -39.671875 C 33.3125 -38.566406 35.414062 -37.03125 37.15625 -35.0625 C 38.894531 -33.101562 40.097656 -30.835938 40.765625 -28.265625 L 31.96875 -26.40625 C 31.332031 -28.394531 30.15625 -30.015625 28.4375 -31.265625 C 26.71875 -32.515625 24.769531 -33.140625 22.59375 -33.140625 C 20.394531 -33.140625 18.429688 -32.578125 16.703125 -31.453125 C 14.984375 -30.335938 13.644531 -28.796875 12.6875 -26.828125 C 11.738281 -24.867188 11.265625 -22.582031 11.265625 -19.96875 C 11.265625 -17.34375 11.804688 -15.019531 12.890625 -13 C 13.984375 -10.988281 15.484375 -9.410156 17.390625 -8.265625 C 19.296875 -7.128906 21.484375 -6.5625 23.953125 -6.5625 C 26.078125 -6.5625 27.976562 -7 29.65625 -7.875 C 31.34375 -8.757812 32.695312 -9.96875 33.71875 -11.5 C 34.75 -13.03125 35.304688 -14.769531 35.390625 -16.71875 L 18.21875 -16.71875 L 18.21875 -22.65625 L 44.75 -22.65625 L 44.75 0 L 37.734375 0 L 36.78125 -7.578125 L 36.734375 -7.578125 C 35.460938 -4.804688 33.460938 -2.632812 30.734375 -1.0625 C 28.003906 0.507812 24.878906 1.296875 21.359375 1.296875 Z M 21.359375 1.296875 "/></g></g></g><g fill="#5fbffd" fill-opacity="1"><g transform="translate(94.662104, 285.753526)"><g><path d="M 2.25 0 L 2.25 -41.609375 L 10.828125 -41.609375 L 10.828125 0 Z M 2.25 0 "/></g></g></g><g fill="#5fbffd" fill-opacity="1"><g transform="translate(107.727411, 285.753526)"><g><path d="M 17.21875 1.125 C 14.039062 1.125 11.253906 0.488281 8.859375 -0.78125 C 6.460938 -2.050781 4.601562 -3.851562 3.28125 -6.1875 C 1.957031 -8.53125 1.296875 -11.253906 1.296875 -14.359375 C 1.296875 -17.492188 1.957031 -20.21875 3.28125 -22.53125 C 4.601562 -24.851562 6.460938 -26.648438 8.859375 -27.921875 C 11.253906 -29.191406 14.039062 -29.828125 17.21875 -29.828125 C 20.425781 -29.828125 23.226562 -29.191406 25.625 -27.921875 C 28.019531 -26.648438 29.878906 -24.851562 31.203125 -22.53125 C 32.535156 -20.21875 33.203125 -17.492188 33.203125 -14.359375 C 33.203125 -11.253906 32.535156 -8.53125 31.203125 -6.1875 C 29.878906 -3.851562 28.019531 -2.050781 25.625 -0.78125 C 23.226562 0.488281 20.425781 1.125 17.21875 1.125 Z M 17.21875 -6 C 19.53125 -6 21.359375 -6.742188 22.703125 -8.234375 C 24.054688 -9.734375 24.734375 -11.773438 24.734375 -14.359375 C 24.734375 -16.929688 24.054688 -18.96875 22.703125 -20.46875 C 21.359375 -21.96875 19.53125 -22.71875 17.21875 -22.71875 C 14.9375 -22.71875 13.113281 -21.96875 11.75 -20.46875 C 10.382812 -18.96875 9.703125 -16.929688 9.703125 -14.359375 C 9.703125 -11.773438 10.382812 -9.734375 11.75 -8.234375 C 13.113281 -6.742188 14.9375 -6 17.21875 -6 Z M 17.21875 -6 "/></g></g></g><g fill="#5fbffd" fill-opacity="1"><g transform="translate(142.157004, 285.753526)"><g><path d="M 20.8125 0.84375 C 16.164062 0.84375 12.816406 -1.269531 10.765625 -5.5 L 10.703125 -5.5 L 9.421875 0 L 2.25 0 L 2.25 -41.609375 L 10.828125 -41.609375 L 10.828125 -23.21875 L 10.875 -23.21875 C 12.9375 -27.4375 16.25 -29.546875 20.8125 -29.546875 C 23.3125 -29.546875 25.523438 -28.910156 27.453125 -27.640625 C 29.378906 -26.367188 30.882812 -24.601562 31.96875 -22.34375 C 33.050781 -20.082031 33.59375 -17.421875 33.59375 -14.359375 C 33.59375 -11.328125 33.050781 -8.671875 31.96875 -6.390625 C 30.882812 -4.109375 29.378906 -2.332031 27.453125 -1.0625 C 25.523438 0.207031 23.3125 0.84375 20.8125 0.84375 Z M 17.71875 -6.390625 C 19.851562 -6.390625 21.601562 -7.144531 22.96875 -8.65625 C 24.332031 -10.175781 25.015625 -12.078125 25.015625 -14.359375 C 25.015625 -16.640625 24.332031 -18.535156 22.96875 -20.046875 C 21.601562 -21.554688 19.851562 -22.3125 17.71875 -22.3125 C 15.625 -22.3125 13.894531 -21.554688 12.53125 -20.046875 C 11.164062 -18.535156 10.484375 -16.640625 10.484375 -14.359375 C 10.484375 -12.859375 10.789062 -11.507812 11.40625 -10.3125 C 12.03125 -9.125 12.890625 -8.171875 13.984375 -7.453125 C 15.085938 -6.742188 16.332031 -6.390625 17.71875 -6.390625 Z M 17.71875 -6.390625 "/></g></g></g><g fill="#5fbffd" fill-opacity="1"><g transform="translate(177.035195, 285.753526)"><g><path d="M 18.453125 1.125 C 15.085938 1.125 12.113281 0.460938 9.53125 -0.859375 C 6.945312 -2.191406 4.925781 -4.035156 3.46875 -6.390625 C 2.019531 -8.742188 1.296875 -11.457031 1.296875 -14.53125 C 1.296875 -17.550781 1.9375 -20.210938 3.21875 -22.515625 C 4.507812 -24.816406 6.320312 -26.609375 8.65625 -27.890625 C 11 -29.179688 13.703125 -29.828125 16.765625 -29.828125 C 19.753906 -29.828125 22.359375 -29.207031 24.578125 -27.96875 C 26.804688 -26.738281 28.546875 -25.03125 29.796875 -22.84375 C 31.054688 -20.664062 31.6875 -18.132812 31.6875 -15.25 C 31.6875 -14.6875 31.644531 -14.113281 31.5625 -13.53125 C 31.488281 -12.957031 31.398438 -12.445312 31.296875 -12 L 10.09375 -12 C 10.351562 -9.945312 11.273438 -8.289062 12.859375 -7.03125 C 14.453125 -5.78125 16.425781 -5.15625 18.78125 -5.15625 C 20.582031 -5.15625 22.265625 -5.519531 23.828125 -6.25 C 25.398438 -6.976562 26.597656 -7.921875 27.421875 -9.078125 L 32.296875 -5.328125 C 31.140625 -3.421875 29.316406 -1.867188 26.828125 -0.671875 C 24.347656 0.523438 21.554688 1.125 18.453125 1.125 Z M 10.03125 -16.9375 L 22.984375 -16.9375 C 22.835938 -19.0625 22.203125 -20.722656 21.078125 -21.921875 C 19.960938 -23.117188 18.523438 -23.71875 16.765625 -23.71875 C 14.972656 -23.71875 13.46875 -23.09375 12.25 -21.84375 C 11.039062 -20.59375 10.300781 -18.957031 10.03125 -16.9375 Z M 10.03125 -16.9375 "/></g></g></g><g fill="#5fbffd" fill-opacity="1"><g transform="translate(210.399378, 285.753526)"><g><path d="M 12.78125 0 L 12.78125 -31.734375 L 0.84375 -31.734375 L 0.84375 -39.921875 L 34.3125 -39.921875 L 34.3125 -31.734375 L 22.375 -31.734375 L 22.375 0 Z M 12.78125 0 "/></g></g></g><g fill="#5fbffd" fill-opacity="1"><g transform="translate(245.557926, 285.753526)"><g><path d="M 6.734375 -32.640625 C 5.234375 -32.640625 4.015625 -33.085938 3.078125 -33.984375 C 2.148438 -34.878906 1.6875 -36.054688 1.6875 -37.515625 C 1.6875 -39.015625 2.148438 -40.210938 3.078125 -41.109375 C 4.015625 -42.003906 5.234375 -42.453125 6.734375 -42.453125 C 8.265625 -42.453125 9.492188 -42.003906 10.421875 -41.109375 C 11.359375 -40.210938 11.828125 -39.015625 11.828125 -37.515625 C 11.828125 -36.054688 11.359375 -34.878906 10.421875 -33.984375 C 9.492188 -33.085938 8.265625 -32.640625 6.734375 -32.640625 Z M 2.46875 0 L 2.46875 -28.71875 L 10.984375 -28.71875 L 10.984375 0 Z M 2.46875 0 "/></g></g></g><g fill="#5fbffd" fill-opacity="1"><g transform="translate(259.071841, 285.753526)"><g><path d="M 14.078125 0.84375 C 11.566406 0.84375 9.347656 0.207031 7.421875 -1.0625 C 5.503906 -2.332031 4.003906 -4.109375 2.921875 -6.390625 C 1.835938 -8.671875 1.296875 -11.328125 1.296875 -14.359375 C 1.296875 -17.421875 1.835938 -20.082031 2.921875 -22.34375 C 4.003906 -24.601562 5.503906 -26.367188 7.421875 -27.640625 C 9.347656 -28.910156 11.566406 -29.546875 14.078125 -29.546875 C 18.640625 -29.546875 21.945312 -27.4375 24 -23.21875 L 24.0625 -23.21875 L 24.0625 -41.609375 L 32.640625 -41.609375 L 32.640625 0 L 25.453125 0 L 24.171875 -5.5 L 24.109375 -5.5 C 23.097656 -3.4375 21.734375 -1.863281 20.015625 -0.78125 C 18.296875 0.300781 16.316406 0.84375 14.078125 0.84375 Z M 17.109375 -6.390625 C 18.523438 -6.390625 19.785156 -6.742188 20.890625 -7.453125 C 21.992188 -8.171875 22.851562 -9.125 23.46875 -10.3125 C 24.082031 -11.507812 24.390625 -12.859375 24.390625 -14.359375 C 24.390625 -16.640625 23.707031 -18.535156 22.34375 -20.046875 C 20.976562 -21.554688 19.234375 -22.3125 17.109375 -22.3125 C 15.015625 -22.3125 13.273438 -21.554688 11.890625 -20.046875 C 10.503906 -18.535156 9.8125 -16.640625 9.8125 -14.359375 C 9.8125 -12.078125 10.503906 -10.175781 11.890625 -8.65625 C 13.273438 -7.144531 15.015625 -6.390625 17.109375 -6.390625 Z M 17.109375 -6.390625 "/></g></g></g><g fill="#5fbffd" fill-opacity="1"><g transform="translate(293.95002, 285.753526)"><g><path d="M 18.453125 1.125 C 15.085938 1.125 12.113281 0.460938 9.53125 -0.859375 C 6.945312 -2.191406 4.925781 -4.035156 3.46875 -6.390625 C 2.019531 -8.742188 1.296875 -11.457031 1.296875 -14.53125 C 1.296875 -17.550781 1.9375 -20.210938 3.21875 -22.515625 C 4.507812 -24.816406 6.320312 -26.609375 8.65625 -27.890625 C 11 -29.179688 13.703125 -29.828125 16.765625 -29.828125 C 19.753906 -29.828125 22.359375 -29.207031 24.578125 -27.96875 C 26.804688 -26.738281 28.546875 -25.03125 29.796875 -22.84375 C 31.054688 -20.664062 31.6875 -18.132812 31.6875 -15.25 C 31.6875 -14.6875 31.644531 -14.113281 31.5625 -13.53125 C 31.488281 -12.957031 31.398438 -12.445312 31.296875 -12 L 10.09375 -12 C 10.351562 -9.945312 11.273438 -8.289062 12.859375 -7.03125 C 14.453125 -5.78125 16.425781 -5.15625 18.78125 -5.15625 C 20.582031 -5.15625 22.265625 -5.519531 23.828125 -6.25 C 25.398438 -6.976562 26.597656 -7.921875 27.421875 -9.078125 L 32.296875 -5.328125 C 31.140625 -3.421875 29.316406 -1.867188 26.828125 -0.671875 C 24.347656 0.523438 21.554688 1.125 18.453125 1.125 Z M 10.03125 -16.9375 L 22.984375 -16.9375 C 22.835938 -19.0625 22.203125 -20.722656 21.078125 -21.921875 C 19.960938 -23.117188 18.523438 -23.71875 16.765625 -23.71875 C 14.972656 -23.71875 13.46875 -23.09375 12.25 -21.84375 C 11.039062 -20.59375 10.300781 -18.957031 10.03125 -16.9375 Z M 10.03125 -16.9375 "/></g></g></g></svg>